<svg width="32" height="32" viewBox="0 0 32 32" fill="none" xmlns="http://www.w3.org/2000/svg">
<circle cx="16" cy="16" r="15.5" fill="black" stroke="white"/>
<path d="M13.7397 13.5728V10.1388C13.7397 10.1388 14.189 8.13574 15.8376 8.13574L16.1232 6.16797H16.3294L16.6006 8.09088C16.6006 8.09088 18.6062 8.36008 18.7442 10.3663V13.5712L13.7397 13.5728Z" fill="white"/>
<path d="M16.2058 12.6435C17.3489 12.6435 18.2756 11.718 18.2756 10.5764C18.2756 9.43476 17.3489 8.50928 16.2058 8.50928C15.0627 8.50928 14.136 9.43476 14.136 10.5764C14.136 11.718 15.0627 12.6435 16.2058 12.6435Z" fill="black" stroke="white" stroke-width="0.5" stroke-miterlimit="10"/>
<path d="M16.2357 9.25343C16.2358 9.21807 16.222 9.18408 16.1971 9.15889C16.1719 9.13401 16.1379 9.11992 16.1025 9.11963C16.0669 9.11963 16.0329 9.13373 16.0077 9.15882C15.9826 9.18391 15.9685 9.21794 15.9685 9.25343V10.7212C15.9688 10.7447 15.9752 10.7676 15.987 10.7878C15.9988 10.808 16.0156 10.8248 16.0359 10.8366L16.9713 11.3702C17.0019 11.387 17.038 11.3911 17.0716 11.3814C17.1048 11.3719 17.1329 11.3498 17.1501 11.3199C17.1674 11.29 17.1723 11.2546 17.1638 11.2212C17.1547 11.1878 17.1332 11.1592 17.1037 11.1411L16.2357 10.6459V9.25343Z" fill="white"/>
<path d="M6.45679 17.0303V22.041H13.8744V18.8202C14.5916 17.5318 16.2009 17.6031 16.2009 17.6031C18.2434 17.7466 18.5274 18.9652 18.5274 18.9652V22.0434H25.9458V17.0303H6.45679ZM9.72674 20.4218H8.36292V18.0238H9.72674V20.4218ZM12.1632 20.4218H10.7993V18.0238H12.1632V20.4218ZM21.6233 20.4218H20.2594V18.0238H21.6233V20.4218ZM24.0966 20.4218H22.7328V18.0238H24.0966V20.4218Z" fill="white"/>
<path d="M25.4493 15.9215H19.4653V13.5596H12.9792V15.8831H7.138C6.38549 15.9904 6.45689 16.7059 6.45689 16.7059H25.9515C25.9515 15.9215 25.4493 15.9215 25.4493 15.9215ZM14.8781 15.9928H13.7397V14.3103H14.8781V15.9928ZM16.773 15.9928H15.6354V14.3103H16.773V15.9928ZM18.7441 15.9928H17.6057V14.3103H18.7441V15.9928Z" fill="white"/>
</svg>
