<svg width="55" height="60" viewBox="0 0 55 60" fill="none" xmlns="http://www.w3.org/2000/svg">
<path d="M49.7262 54.4887L49.1152 54.4522C48.9957 54.4419 48.8761 54.4708 48.7746 54.5345C48.6731 54.5982 48.5954 54.6931 48.5532 54.8049C48.3959 55.1186 48.2141 55.4195 48.0094 55.7048C47.5329 56.3128 47.0258 56.8479 46.531 57.4134C46.4821 57.4682 46.4271 57.5411 46.366 57.5533C46.1278 57.5533 46.03 57.7235 45.9017 57.912C45.7287 58.0978 45.5213 58.2485 45.2908 58.3559C45.1721 58.4343 45.0475 58.5034 44.9181 58.5626C44.6493 58.6903 44.3866 58.8302 44.1055 58.9396C43.5985 59.1342 43.0914 59.3288 42.5721 59.4869C42.186 59.5929 41.7944 59.6782 41.3991 59.7423C39.928 59.9529 38.4369 59.9876 36.9576 59.8456C36.6368 59.7891 36.3233 59.6973 36.0228 59.572C35.9617 59.572 35.8945 59.572 35.8334 59.5355C35.4083 59.4953 34.9942 59.3778 34.6116 59.1889C34.3977 59.0795 34.1228 59.0795 33.9151 58.964C33.6567 58.8305 33.3781 58.7402 33.0903 58.6964C33.0271 58.6838 32.9669 58.659 32.9132 58.6234L31.6913 57.9424C31.3369 57.7418 30.9765 57.5594 30.6344 57.3344C30.0234 56.9209 29.3697 56.4831 28.7466 56.0514C28.437 55.8002 28.1148 55.5648 27.7813 55.346C27.4697 55.1758 27.2375 54.8231 26.8404 54.8353C26.4696 54.8592 26.1004 54.9039 25.7346 54.969C25.6674 54.969 25.6002 55.0359 25.533 55.042C25.063 55.1254 24.5869 55.1702 24.1095 55.1758C23.6388 55.1204 23.1731 55.0289 22.7166 54.9022C22.4234 54.8353 22.1057 54.7623 21.8491 54.6711C21.6303 54.6088 21.4238 54.5101 21.2381 54.3792C20.8126 54.0501 20.4047 53.699 20.0163 53.3273C19.8941 53.1819 19.8008 53.0148 19.7413 52.8348C19.6558 52.6706 19.5825 52.5003 19.5092 52.324C19.3856 52.075 19.2873 51.8142 19.2159 51.5457C19.1671 51.2375 19.1671 50.9236 19.2159 50.6154C19.2417 50.4902 19.2313 50.3604 19.1859 50.2409C19.1405 50.1214 19.0619 50.0172 18.9593 49.9404C18.7701 49.7861 18.6173 49.5923 18.5117 49.3727C18.4061 49.1531 18.3504 48.913 18.3484 48.6696C18.3484 48.3473 18.55 48.1527 18.6294 47.8852C18.6294 47.8366 18.715 47.7879 18.7089 47.7514C18.6417 47.3866 18.9105 47.192 19.1243 46.9914C19.4481 46.6812 19.8391 46.4441 20.1384 46.1097C20.3217 45.909 20.5783 45.8664 20.7494 45.7205C21.0231 45.507 21.215 45.2065 21.2931 44.8692C21.3069 44.7258 21.3644 44.59 21.4581 44.4801C21.7261 44.1937 22.0206 43.9331 22.3378 43.7018C22.629 43.525 22.9333 43.3705 23.2481 43.2397C23.4009 43.1667 23.5536 43.0755 23.7124 43.0147C23.879 42.9272 24.0622 42.8755 24.2501 42.8627C24.5789 42.8476 24.8975 42.7447 25.1726 42.5647C25.2934 42.5063 25.3991 42.4211 25.4817 42.3157C25.5643 42.2103 25.6216 42.0875 25.6491 41.9567C25.7408 41.7074 26.0035 41.5249 26.1745 41.3C26.3013 41.1279 26.4156 40.947 26.5166 40.7588C26.7121 40.394 26.9199 40.0352 27.0787 39.6582C27.1329 39.4593 27.1676 39.2557 27.1826 39.0501C27.2215 38.9336 27.2685 38.8198 27.3231 38.7096C27.3903 38.5637 27.4697 38.4239 27.5308 38.2779C27.6408 38.0306 27.7446 37.7813 27.8424 37.53C27.8734 37.4755 27.8942 37.4157 27.9035 37.3537C27.9406 36.938 28.0633 36.5344 28.2639 36.168C28.3204 36.0036 28.3493 35.831 28.3495 35.6572C28.3431 35.5368 28.3628 35.4165 28.407 35.3043C28.4513 35.192 28.5191 35.0905 28.606 35.0066C28.6429 34.969 28.6701 34.9231 28.6855 34.8728C28.8077 34.5019 28.936 34.1371 29.0581 33.7722C29.0581 33.7358 29.0581 33.6993 29.0581 33.6628C29.1192 33.4378 29.1742 33.2128 29.2414 32.9878C29.3086 32.7629 29.388 32.544 29.4614 32.319C29.4739 32.2568 29.5012 32.1984 29.5408 32.1487C29.8271 31.7559 30.067 31.3315 30.2556 30.884C30.4714 30.5263 30.7188 30.1885 30.9948 29.8746C31.2841 29.5127 31.5985 29.1713 31.9357 28.8531C32.3371 28.5055 32.7594 28.1827 33.2003 27.8863C33.5241 27.6552 33.8846 27.4667 34.2083 27.2417C34.2774 27.1913 34.3299 27.1217 34.3593 27.0416C34.3886 26.9615 34.3935 26.8746 34.3733 26.7918C34.3003 26.3316 34.0478 25.9186 33.6707 25.6425C33.4032 25.4449 33.1142 25.2776 32.8093 25.1439C32.5222 25.0041 32.1984 24.9068 31.9418 24.7609C31.4849 24.5787 30.9982 24.4818 30.5061 24.4751C29.9807 24.4021 29.4675 24.2562 28.9482 24.2136C28.2822 24.1589 27.6102 24.1528 26.9382 24.1528C24.4211 24.1528 21.8979 24.1528 19.3809 24.1528C18.6178 24.1508 17.8567 24.0755 17.1082 23.9278C16.4473 23.8228 15.7796 23.7659 15.1104 23.7576C14.8942 23.7517 14.6833 23.6887 14.4995 23.5751C14.2932 23.4858 14.0751 23.4264 13.8519 23.3988L12.5628 23.0705C12.3673 23.0218 12.1596 23.0097 11.9519 22.9549C11.457 22.809 10.9683 22.6448 10.4795 22.4867C9.99077 22.3286 9.58144 22.207 9.14157 22.0429C8.70169 21.8787 8.35345 21.6963 7.95634 21.5199C7.55924 21.3436 7.02162 21.1247 6.56952 20.9119C6.21518 20.7295 5.89749 20.4741 5.54314 20.3038C4.99629 19.9831 4.47905 19.6148 3.99747 19.2032C3.54538 18.8688 3.15437 18.4432 2.67784 18.1452C2.20445 17.7709 1.79226 17.3258 1.45597 16.8257C1.1436 16.4904 0.882205 16.1115 0.680077 15.7008C0.502905 15.3117 0.136343 14.9955 0.185218 14.4847C0.185218 14.278 0.0446988 14.0591 0.0141519 13.8463C-0.0269244 13.5025 0.0217791 13.154 0.155555 12.8345C0.289331 12.5149 0.503658 12.2351 0.777824 12.0221C1.01378 11.7873 1.30553 11.6157 1.62596 11.5233C1.94639 11.4308 2.2851 11.4204 2.61064 11.4931C3.15646 11.5382 3.68694 11.6956 4.16853 11.9552C4.2785 12.0343 4.474 11.9917 4.62674 12.0343C4.90777 12.1133 5.1888 12.2106 5.47594 12.3018C5.54035 12.3303 5.60807 12.3507 5.67755 12.3626C6.10521 12.393 6.53286 12.4113 6.95441 12.4599C7.19267 12.4903 7.42483 12.5876 7.6692 12.6301C8.10297 12.697 8.53674 12.7518 8.9705 12.8004C9.63032 12.8855 10.3023 12.9524 10.9622 13.0315C11.5242 13.0984 12.0863 13.1835 12.6484 13.2443C13.2641 13.2568 13.8774 13.3239 14.4812 13.445C15.1046 13.5406 15.7327 13.6035 16.3629 13.6334C16.8516 13.7368 17.3404 13.8219 17.8291 13.9192C17.9015 13.9353 17.975 13.9455 18.049 13.9496C18.7198 13.9473 19.3884 14.0249 20.0407 14.1807C20.7005 14.3084 21.3664 14.4239 22.0201 14.5759C22.2951 14.6367 22.5455 14.7948 22.8144 14.8556C23.046 14.8769 23.2792 14.8769 23.5108 14.8556C23.6043 14.8464 23.6984 14.8464 23.7919 14.8556C23.8681 14.876 23.9418 14.9045 24.0118 14.9408C24.0118 14.8374 24.0118 14.6732 24.0118 14.6428C23.927 14.5793 23.8589 14.4964 23.8132 14.4012C23.7674 14.3059 23.7455 14.2011 23.7491 14.0956C23.7491 14.0348 23.6819 13.974 23.6513 13.9131C23.4253 13.5057 23.2054 13.0923 22.9671 12.697C22.8266 12.4599 22.6494 12.241 22.515 11.9978C22.3806 11.7546 22.1912 11.3411 22.0262 11.0066C21.8613 10.6722 21.7269 10.3986 21.5864 10.0885C21.4947 9.87566 21.4214 9.65068 21.3298 9.43786C21.1648 9.08553 21.0199 8.72417 20.896 8.35552C20.725 7.7049 20.6089 7.02996 20.4561 6.37327C20.3889 6.10572 20.2545 5.85034 20.1995 5.58279C20.1446 5.31525 20.1568 5.07203 20.1201 4.81665C20.0468 4.34236 19.9674 3.86807 19.8819 3.39379C19.8274 3.19496 19.7926 2.9913 19.778 2.78573C19.7801 2.40495 19.8357 2.02634 19.943 1.66084C20.0986 1.279 20.304 0.919184 20.5539 0.590654C20.6572 0.457583 20.787 0.347275 20.9353 0.266687C21.0836 0.1861 21.247 0.13699 21.4153 0.122458C21.5558 0.122458 21.6902 -0.00523519 21.8246 0.00692591C22.1477 -0.0202347 22.4725 0.0327587 22.77 0.161157C23.0675 0.289556 23.3283 0.489348 23.5292 0.742668C23.6819 0.98589 23.8774 1.2048 24.0362 1.44194C24.0893 1.5445 24.1362 1.65008 24.1767 1.75813C24.244 1.87974 24.3295 1.98918 24.4028 2.10471C24.4761 2.22025 24.5128 2.23241 24.525 2.30537C24.5673 2.56431 24.6652 2.81112 24.8121 3.02896C25.0211 3.40769 25.2048 3.79971 25.362 4.2025C25.362 4.25723 25.4108 4.34844 25.4536 4.3606C25.7224 4.43965 25.6797 4.67679 25.7407 4.86529C25.8003 4.9866 25.8763 5.09913 25.9668 5.19971C26.0768 5.36389 26.199 5.52198 26.3089 5.68616C26.3627 5.79951 26.4239 5.9092 26.4922 6.01452C26.9076 6.49488 27.3353 6.96308 27.7446 7.44344C27.879 7.60153 27.9585 7.80827 28.099 7.9542C28.2395 8.10014 28.4655 8.22783 28.6183 8.38593C28.771 8.54402 28.9909 8.87845 29.1987 9.10343C29.5774 9.50474 29.9746 9.88782 30.3656 10.277C30.8665 10.7756 31.3797 11.262 31.8685 11.7728C32.1495 12.0647 32.3816 12.3809 32.6749 12.6849C32.9681 12.9889 33.463 13.3416 33.8235 13.7064C34.1839 14.0712 34.4344 14.4239 34.746 14.7766C35.0576 15.1293 35.3019 15.336 35.5769 15.6218C35.8518 15.9076 36.255 16.3758 36.6399 16.698C36.9677 17.0406 37.2454 17.4275 37.4646 17.8473C37.5498 17.9943 37.6569 18.1276 37.7823 18.2425C38.1194 18.5987 38.3922 19.0101 38.5888 19.4586C38.7593 19.7241 38.9123 20.0004 39.047 20.2856C39.1814 20.5896 39.273 20.8936 39.383 21.228C39.493 21.5625 39.5418 21.7206 39.6152 21.9638C39.6885 22.207 39.7007 22.3165 39.7496 22.4867C39.8228 22.7083 39.8839 22.9336 39.9328 23.1617C39.9645 23.3751 39.9809 23.5905 39.9817 23.8062C40.0123 24.5906 40.0184 25.3811 40.0856 26.1594C40.1283 26.7066 40.2505 26.7674 40.6965 26.7674C40.8033 26.746 40.9141 26.7608 41.0115 26.8092C41.1089 26.8577 41.1873 26.9371 41.2341 27.035C41.3074 27.1748 41.5518 27.2113 41.6679 27.339C41.784 27.4667 41.9917 27.7586 42.1628 27.9471C42.3338 28.1356 42.4621 28.2511 42.5782 28.4213C42.74 28.6467 42.9829 28.8014 43.2563 28.8531C43.6969 28.9269 44.1018 29.1401 44.411 29.4611C44.6444 29.737 44.8626 30.0253 45.0647 30.3246C45.1258 30.4097 45.1564 30.5131 45.2175 30.5982C45.4399 30.8953 45.5866 31.2416 45.6451 31.6076C45.7009 31.8169 45.7765 32.0205 45.8712 32.2156C45.9139 32.3372 45.9506 32.4588 45.9872 32.5804C46.1947 33.1956 46.354 33.8258 46.4638 34.4654C46.5615 35.0735 46.7081 35.7241 46.8487 36.3504C46.9281 36.7091 47.0258 37.0679 47.1175 37.4266C47.1175 37.4874 47.1602 37.5483 47.1725 37.6091C47.2519 38.132 47.3069 38.661 47.4107 39.1778C47.5146 39.6947 47.6245 40.1082 47.7528 40.5703C47.8811 41.0324 48.0339 41.5979 48.1988 42.1026C48.2783 42.3519 48.4188 42.583 48.5165 42.8201C48.6143 43.0572 48.6815 43.2761 48.7853 43.495C48.9066 43.766 49.0539 44.0246 49.2252 44.2673C49.3354 44.3899 49.4802 44.4768 49.6406 44.5166C49.9339 44.6078 50.2516 44.6564 50.5326 44.7476C50.7963 44.8114 51.0523 44.9032 51.2963 45.0213C51.7913 45.2832 52.267 45.5799 52.7198 45.909C53.1126 46.2119 53.4711 46.5564 53.7889 46.9366C54.0564 47.2919 54.3013 47.6636 54.522 48.0494C54.5455 48.0996 54.5619 48.1528 54.5709 48.2075C54.6287 48.5634 54.7187 48.9135 54.8397 49.2533C54.9925 49.5938 54.7909 49.8614 54.7175 50.1228C54.6187 50.4129 54.4582 50.6783 54.2471 50.9011C54.1388 51.0998 54.0664 51.316 54.0333 51.5396C53.9667 51.7649 53.8871 51.9862 53.795 52.2024C53.7045 52.3756 53.5735 52.5247 53.4129 52.6368C53.2523 52.749 53.067 52.8211 52.8725 52.8469C52.7406 52.8663 52.6156 52.9181 52.5089 52.9977C52.4022 53.0774 52.3172 53.1823 52.2616 53.303C52.1254 53.489 51.9476 53.641 51.7423 53.7469C51.4789 53.9392 51.1939 54.1004 50.8931 54.2272C50.5289 54.3413 50.1575 54.4307 49.7812 54.4948L49.7262 54.4887ZM54.0027 50.5728L54.1738 50.5242C54.2524 50.2382 54.3136 49.9479 54.3571 49.6546C54.3826 49.1023 54.2445 48.5547 53.96 48.0798C53.9172 47.9946 53.8256 47.9338 53.7767 47.8548C53.6417 47.5868 53.4843 47.3305 53.3063 47.0886C53.068 46.8272 52.7564 46.6326 52.4937 46.3955C52.1317 46.0732 51.7189 45.8123 51.2719 45.6232C50.8914 45.4259 50.4768 45.3021 50.05 45.2584C49.9866 45.2486 49.925 45.2302 49.8667 45.2037C49.6525 45.112 49.4217 45.0647 49.1885 45.0647C48.9554 45.0647 48.7246 45.112 48.5104 45.2037C48.2599 45.3314 48.0278 45.4955 47.7773 45.6232C47.3767 45.8108 47.0608 46.1404 46.8914 46.5475C46.7896 46.7892 46.6376 47.0067 46.4454 47.1859C46.0953 47.5164 45.7217 47.8212 45.3274 48.098C45.1102 48.219 44.8751 48.3052 44.6309 48.3534C44.4171 48.4142 44.1911 48.4568 43.965 48.4993C43.8558 48.5176 43.7443 48.5176 43.6351 48.4993C43.4019 48.4638 43.1713 48.4131 42.9448 48.3473C42.7114 48.2745 42.4829 48.1872 42.2605 48.0859C42.1228 48.0367 41.9916 47.9714 41.8695 47.8913C41.4642 47.5098 40.9496 47.2633 40.3972 47.1859C40.3233 47.18 40.2509 47.1615 40.1833 47.1312C39.9145 47.0278 39.6579 46.9123 39.3891 46.8211C39.1203 46.7299 38.7782 46.663 38.4971 46.5779C38.2899 46.52 38.0859 46.451 37.8862 46.3711C37.4646 46.207 37.0492 46.0124 36.6277 45.8543C36.3589 45.7509 36.0717 45.7023 35.7968 45.6232C35.754 45.6232 35.7174 45.5685 35.6807 45.5563C35.4577 45.4477 35.2293 45.3503 34.9965 45.2645C34.7215 45.1611 34.4344 45.0881 34.1534 44.9909C33.8723 44.8936 33.6157 44.772 33.3408 44.6807C33.0659 44.5895 32.8154 44.547 32.5588 44.4618C32.0151 44.2855 31.4836 44.0727 30.9337 43.9207C30.5061 43.8051 30.0601 43.7687 29.6202 43.6896H29.5163C29.0663 43.5296 28.5987 43.4235 28.1234 43.3734C26.9015 43.3734 25.6797 43.1728 24.4944 43.4829C24.079 43.5923 23.688 43.7261 23.2726 43.872C22.8093 44.0665 22.3928 44.3566 22.0507 44.7233C21.9285 44.8449 21.6963 45.003 21.8674 45.2888H23.8896V45.38C23.8506 45.412 23.8075 45.4386 23.7613 45.4591C23.5047 45.5259 23.242 45.5989 22.9793 45.6415C22.6606 45.6397 22.3448 45.7017 22.0507 45.8239C21.8185 45.9577 21.5008 45.9516 21.2748 46.0914C20.7205 46.3786 20.2104 46.743 19.7597 47.1738C19.5262 47.3923 19.3418 47.6575 19.2186 47.952C19.0955 48.2465 19.0362 48.5635 19.0449 48.8824C19.0449 49.2108 19.2892 49.3567 19.4725 49.533C19.5249 49.5618 19.5838 49.5768 19.6436 49.5768C19.7034 49.5768 19.7623 49.5618 19.8147 49.533C20.0285 49.3932 20.2057 49.1986 20.4256 49.0587C20.671 48.8976 20.9261 48.7514 21.1893 48.6209C21.2442 48.6209 21.342 48.6209 21.3787 48.6209C21.3178 48.7338 21.2395 48.8364 21.1465 48.925C20.5061 49.3944 20.0589 50.0794 19.888 50.8525C19.8132 51.2966 19.8907 51.7527 20.1079 52.1477C20.2373 52.4372 20.4126 52.7041 20.6272 52.9381C20.8587 53.1928 21.1122 53.4268 21.3848 53.6374C21.6472 53.8561 21.9636 54.001 22.3012 54.057C22.68 54.1178 23.0343 54.3123 23.4131 54.3731C24.221 54.4495 25.0362 54.3816 25.8202 54.1725C25.9535 54.1401 26.0784 54.08 26.1867 53.9961C26.1867 53.9961 26.2234 53.8624 26.1867 53.8137C25.9057 53.3881 25.6125 52.9685 25.3253 52.549L25.362 52.4882C25.4224 52.4972 25.4805 52.5178 25.533 52.549C25.643 52.6402 25.7346 52.7436 25.8446 52.8348C26.0523 53.0233 26.26 53.2057 26.4555 53.382C26.651 53.5584 27.0665 53.8259 27.3353 54.0387C27.6041 54.2515 27.7752 54.3063 27.9829 54.4644C28.2528 54.719 28.5452 54.949 28.8565 55.1515C29.2659 55.3521 29.5591 55.6926 29.944 55.9115C30.3289 56.1304 30.5549 56.3311 30.8482 56.5196C31.1414 56.7081 31.6363 56.9452 32.0334 57.1276C32.4305 57.3101 32.7665 57.5229 33.1392 57.7053C33.2981 57.7843 33.4691 57.833 33.6341 57.9059C34.0251 58.0762 34.41 58.2769 34.8132 58.4289C35.1117 58.5224 35.4157 58.5975 35.7235 58.6539L35.8029 58.6843C36.108 58.8132 36.4226 58.9189 36.7437 59.0005C37.2475 59.1019 37.7579 59.1669 38.2711 59.195C39.0617 59.2809 39.8607 59.2481 40.6415 59.0977C41.1792 58.9579 41.7595 59.0977 42.2911 58.8484C42.5792 58.7478 42.8756 58.6726 43.1769 58.6234C43.5924 58.441 44.0139 58.2586 44.4293 58.064C44.6114 57.974 44.7852 57.8682 44.9486 57.7478C45.2541 57.5411 45.5596 57.3283 45.8589 57.1094C46.0812 56.9718 46.2862 56.8085 46.4699 56.623C46.8049 56.242 47.1093 55.8353 47.3802 55.4068C47.6362 54.961 47.8647 54.5001 48.0644 54.0266C48.1663 53.7671 48.25 53.5009 48.3149 53.23C48.3613 53.2208 48.409 53.2208 48.4554 53.23C48.7497 53.4341 49.0936 53.5559 49.4512 53.5827C49.7384 53.5827 50.0255 53.5827 50.3127 53.5827C50.4034 53.5858 50.4935 53.567 50.5754 53.528C50.7709 53.4367 50.9419 53.309 51.1374 53.23C51.3652 53.1383 51.5637 52.9871 51.7121 52.7923C51.8606 52.5974 51.9533 52.3663 51.9805 52.1233C52.0079 51.8219 52.0079 51.5187 51.9805 51.2173C51.9805 51.1626 52.0355 51.1079 52.0722 51.0532C52.1088 50.9984 52.1638 51.1079 52.176 51.1505C52.2555 51.4302 52.3349 51.7159 52.396 52.0017C52.3973 52.036 52.4059 52.0695 52.4211 52.1002C52.4364 52.1309 52.458 52.158 52.4845 52.1799C52.5111 52.2017 52.5419 52.2177 52.5751 52.2268C52.6083 52.2359 52.643 52.238 52.677 52.2328C52.8774 52.2045 53.0658 52.1204 53.2203 51.9902C53.3749 51.86 53.4894 51.6891 53.5506 51.497C53.5901 50.9725 53.515 50.4456 53.3307 49.9526C53.3307 49.9526 53.2635 49.9161 53.2452 49.8857L52.9703 49.4297L53.1108 49.3445C53.3185 49.6364 53.5323 49.9526 53.7217 50.214C53.8133 50.3661 53.905 50.4694 53.9905 50.5728H54.0027ZM37.4463 26.9316C37.2936 26.5729 37.147 26.1898 36.9759 25.8128C36.7943 25.3691 36.5904 24.9348 36.365 24.5116C36.0961 24.0677 35.754 23.6481 35.4669 23.2286C35.1797 22.809 34.7826 22.2982 34.4039 21.8726C34.0422 21.467 33.6566 21.0833 33.2492 20.7234C32.9559 20.4497 32.6382 20.2004 32.3267 19.9511C32.0151 19.7018 31.5508 19.3431 31.1537 19.0573C30.9032 18.881 30.6344 18.7168 30.3717 18.5587C30.109 18.4006 29.8585 18.2425 29.5897 18.0966C29.3208 17.9506 28.9787 17.7865 28.661 17.6345C28.3433 17.4824 27.9646 17.2757 27.6102 17.1115C27.3903 17.0142 27.152 16.9656 26.926 16.8744C26.6999 16.7832 26.4189 16.6372 26.1562 16.5339C25.8935 16.4305 25.6247 16.3636 25.3559 16.2724L24.3661 15.944C24.2989 15.944 24.2195 15.9441 24.1462 15.9076C23.7185 15.792 23.297 15.6644 22.8632 15.561C22.4295 15.4576 22.1362 15.415 21.7697 15.336C21.2381 15.2265 20.7066 15.1049 20.1751 15.0016C19.8085 14.9286 19.4359 14.88 19.0632 14.8313C18.3728 14.734 17.6764 14.8313 16.986 14.6367C16.4117 14.503 15.8008 14.5881 15.2021 14.4786C14.2926 14.3475 13.3771 14.2623 12.459 14.2233C12.0069 14.1807 11.5487 14.1199 11.0966 14.0652C10.3696 14.0476 9.64483 13.9785 8.92773 13.8584C8.49397 13.749 8.02966 13.8159 7.57146 13.6699C7.02878 13.5476 6.4772 13.4683 5.92192 13.4328C5.5187 13.3659 5.11548 13.2808 4.70004 13.2017H4.64506C4.31516 13.0923 3.99136 12.9707 3.65535 12.8734C3.32845 12.7987 3.00616 12.7053 2.69006 12.5937C2.50237 12.5301 2.30196 12.5129 2.10611 12.5436C1.91027 12.5744 1.72488 12.6521 1.56594 12.77C1.41411 12.8642 1.2922 12.9993 1.21435 13.1597C1.1365 13.32 1.10589 13.4991 1.12606 13.676C1.14301 13.9067 1.19236 14.1339 1.27269 14.3509C1.44952 14.8324 1.67466 15.2948 1.94472 15.7312C2.31841 16.2465 2.72663 16.7361 3.16659 17.1967C3.47817 17.5311 3.83863 17.8047 4.16853 18.1574C4.62967 18.593 5.13311 18.9821 5.67144 19.3188C6.06244 19.5802 6.44733 19.8538 6.85055 20.1092C7.16294 20.3232 7.49183 20.5123 7.83416 20.6747C7.993 20.7416 8.13963 20.8146 8.28626 20.8936C8.63449 21.07 8.97661 21.2524 9.33096 21.4226C9.53256 21.5138 9.74639 21.5807 9.94189 21.6659C10.3512 21.83 10.7483 22.0124 11.1638 22.1645C11.5792 22.3165 11.9397 22.4381 12.3368 22.5536C12.7339 22.6691 13.2593 22.8333 13.7297 22.9428C14.2001 23.0522 14.585 23.0948 15.0127 23.1738L15.2021 23.2164C15.6175 23.3137 16.0268 23.4414 16.4239 23.5204C16.8211 23.5995 17.3526 23.6542 17.823 23.7028C18.6417 23.7758 19.4664 23.8913 20.2667 23.8974C21.8596 23.9744 23.4559 23.9419 25.0443 23.8001C26.0598 23.7045 27.0815 23.6923 28.099 23.7636C29.0154 23.7636 29.9318 23.8853 30.8421 23.9461H30.952C31.5202 24.1224 32.0823 24.3231 32.6566 24.4751C33.2018 24.6382 33.7044 24.9184 34.1289 25.2959C34.5901 25.6337 34.9562 26.0839 35.192 26.6033C35.2897 26.8465 35.4058 27.0836 35.5524 27.3937L35.027 27.6674C34.7399 27.8315 34.4527 27.9957 34.1717 28.1781C33.9026 28.3425 33.6454 28.5253 33.4019 28.7254C33.1039 28.9682 32.8242 29.2324 32.5649 29.5158C32.18 29.9354 31.8135 30.3732 31.4713 30.8292C31.2922 31.0832 31.1348 31.3517 31.0009 31.6319C30.8176 31.9724 30.6344 32.3129 30.4755 32.6656C30.3778 32.8784 30.335 33.1095 30.2556 33.3284C30.0845 33.8148 29.889 34.2952 29.7302 34.7816C29.6263 35.0978 29.5713 35.4322 29.4919 35.7545C29.483 35.7909 29.4686 35.8257 29.4491 35.8579C29.3453 36.1193 29.2231 36.3808 29.1376 36.6483C29.052 36.9159 28.9726 37.2564 28.881 37.53C28.8199 37.7246 28.7405 37.9131 28.661 38.1016C28.5816 38.2901 28.4472 38.5759 28.3556 38.8191C28.2089 39.2082 28.0868 39.6096 27.9218 39.9866C27.7327 40.3074 27.5614 40.6383 27.4086 40.9777C27.2291 41.3691 27.025 41.7488 26.7977 42.1148C26.7488 42.2181 26.7121 42.3337 26.6755 42.437C26.7876 42.4871 26.9074 42.518 27.0298 42.5282C27.8177 42.5176 28.6038 42.6054 29.3697 42.7897C29.6813 42.8383 29.9807 42.9174 30.3045 42.9478C30.3409 42.9421 30.378 42.9421 30.4144 42.9478C30.7355 43.0886 31.0717 43.1926 31.4164 43.2579C31.8325 43.3151 32.2332 43.4535 32.5955 43.6653L32.7482 43.4221C32.6374 42.9458 32.5619 42.4621 32.5222 41.9749C32.4552 41.1067 32.4859 40.2338 32.6138 39.3724C32.7482 38.7644 32.6444 38.1016 32.8399 37.4753C32.9434 37.0753 33.021 36.6691 33.072 36.2592C33.0795 36.2319 33.0897 36.2054 33.1026 36.1801C33.2736 35.6937 33.4447 35.2012 33.628 34.7147C33.7462 34.3414 33.9017 33.9809 34.0923 33.6385C34.4442 33.0977 34.8277 32.5779 35.2408 32.0818C35.4459 31.8503 35.68 31.646 35.9373 31.4738C36.1995 31.2931 36.4776 31.1364 36.7682 31.0056C37.052 30.8793 37.3438 30.7716 37.6418 30.6833C37.8401 30.6171 38.0449 30.5722 38.2528 30.5495C38.4065 30.5405 38.5607 30.5528 38.711 30.586C38.7965 30.586 38.8881 30.659 38.9676 30.6529C39.6044 30.6515 40.2228 30.866 40.7209 31.261C40.8492 31.3461 40.9959 31.3947 41.112 31.4859C41.2426 31.5915 41.356 31.7166 41.448 31.8569C41.4741 31.9043 41.5094 31.9461 41.552 31.9799C41.5945 32.0136 41.6434 32.0385 41.6957 32.0532C41.748 32.068 41.8028 32.0722 41.8567 32.0656C41.9107 32.059 41.9628 32.0418 42.01 32.015C42.3087 31.7958 42.6715 31.6804 43.0425 31.6866C43.4374 31.7227 43.8293 31.7857 44.2155 31.8751C44.2486 31.8888 44.2795 31.9072 44.3072 31.9298C44.484 32.03 44.6554 32.1396 44.8203 32.2582C45.0017 32.3983 45.1694 32.555 45.3213 32.7264C45.4255 32.8653 45.5195 33.0117 45.6023 33.1642L45.7245 33.1155C45.722 32.9701 45.7036 32.8253 45.6695 32.6838C45.5168 32.2643 45.3396 31.8508 45.1747 31.4677C45.1101 31.2267 45.0221 30.9925 44.912 30.7684C44.7104 30.4523 44.4477 30.1604 44.2155 29.8807C44.0515 29.6425 43.8274 29.4514 43.5658 29.3265C43.3041 29.2017 43.0141 29.1474 42.7248 29.1693C42.6561 29.1819 42.5851 29.1674 42.5269 29.1288C42.4687 29.0902 42.428 29.0305 42.4132 28.9625C42.3766 28.7711 42.2973 28.5903 42.1811 28.4335C41.9257 28.1145 41.6436 27.8175 41.338 27.5457C40.8143 27.0833 40.1439 26.8186 39.4441 26.7978C38.9688 26.7188 38.4837 26.7188 38.0084 26.7978C37.8373 26.889 37.6479 26.9316 37.4463 26.9316ZM41.7229 33.2615C41.5763 33.0851 41.4724 32.9392 41.3502 32.8176C41.1303 32.5987 40.8859 32.4041 40.6782 32.1791C40.2513 31.6802 39.6517 31.359 38.9981 31.2792C38.2677 31.1446 37.5129 31.2762 36.872 31.6501C36.4885 31.8901 36.1193 32.152 35.7662 32.4345C35.539 32.6527 35.3343 32.8931 35.1553 33.152C34.9588 33.3742 34.781 33.6122 34.6238 33.8634C34.4527 34.1796 34.3305 34.5262 34.19 34.8546C34.0495 35.1829 33.8112 35.645 33.6646 36.0707C33.518 36.4963 33.3958 36.9949 33.2736 37.4631C33.1942 37.7854 33.1209 38.1137 33.072 38.4482C32.9784 39.0135 32.9213 39.5842 32.9009 40.1568C32.813 40.9684 32.8501 41.7886 33.0109 42.589C33.0653 42.8776 33.0797 43.1722 33.0537 43.4646C33.0465 43.5783 33.0828 43.6904 33.1554 43.7784C33.2279 43.8664 33.3313 43.9238 33.4447 43.9389C33.6825 43.9762 33.9145 44.0437 34.135 44.1396C34.4794 44.327 34.8534 44.4545 35.2408 44.5166C35.2778 44.5244 35.3129 44.5388 35.3447 44.5591C35.515 44.6702 35.6925 44.7697 35.8762 44.8571C35.9495 44.8875 36.0656 44.8571 36.1572 44.8145C36.2489 44.772 36.2794 44.7415 36.3466 44.7233C36.6334 44.6385 36.9252 44.5715 37.2203 44.5226C37.6968 44.4618 38.1733 44.4071 38.6499 44.3646C39.6885 44.2551 40.7393 44.2916 41.784 44.2794C41.9306 44.2794 42.0711 44.2794 42.0528 44.0909C42.0383 43.8381 41.9889 43.5885 41.9062 43.3491C41.8084 43.0876 41.8512 42.8627 42.1139 42.7836C42.6149 42.6316 43.1158 42.4978 43.6229 42.358C43.6602 42.3497 43.6948 42.3321 43.7234 42.3069C43.752 42.2817 43.7738 42.2497 43.7866 42.2139C43.7994 42.178 43.8029 42.1395 43.7967 42.102C43.7905 42.0645 43.7748 42.0291 43.7512 41.9992C43.4763 41.7256 43.1953 41.458 42.9203 41.1783C42.5642 40.911 42.2859 40.5542 42.1139 40.1447C42.175 39.9987 42.175 39.8345 42.2483 39.7008C42.4167 39.2491 42.6742 38.8356 43.0059 38.4847C43.1852 38.3206 43.392 38.1889 43.6168 38.0955C43.9162 37.9861 44.1666 38.1685 44.3988 38.357C44.7595 38.6729 45.0009 39.1019 45.083 39.5731C45.2515 40.0451 45.3322 40.5438 45.3213 41.0446C45.2847 41.3729 45.3213 41.7074 45.3213 42.0357C45.2717 42.4859 45.1942 42.9327 45.0892 43.3734C45.0038 43.6368 44.8976 43.893 44.7715 44.1396C44.7503 44.1751 44.7397 44.2157 44.7408 44.257C44.7419 44.2982 44.7547 44.3383 44.7777 44.3726C44.8007 44.4069 44.8329 44.4341 44.8707 44.4509C44.9085 44.4678 44.9504 44.4737 44.9914 44.4679C45.3531 44.4844 45.7017 44.6071 45.9933 44.8206C46.1766 44.93 46.4699 44.8814 46.4821 44.7233C46.5237 44.4317 46.585 44.1433 46.6654 43.8599C46.7963 43.3099 46.864 42.7469 46.867 42.1816C46.9536 40.9364 46.9147 39.6857 46.7509 38.4482C46.6409 37.9253 46.6959 37.3841 46.5493 36.8429C46.4583 36.3053 46.3213 35.7764 46.14 35.262C45.9322 34.8363 45.7551 34.3924 45.529 33.9607C45.4733 33.8542 45.4056 33.7543 45.3274 33.6628C45.1564 33.4439 44.9975 33.225 44.8142 33.0243C44.647 32.8108 44.4193 32.6519 44.1605 32.5683C43.8795 32.4892 43.6229 32.319 43.3419 32.2703C43.1179 32.2779 42.8969 32.3231 42.6882 32.4041C42.4747 32.471 42.2792 32.585 42.1163 32.7377C41.9534 32.8904 41.8272 33.0778 41.7473 33.2858L41.7229 33.2615ZM20.7433 2.85871H20.6761C20.7555 3.34515 20.8349 3.82551 20.9082 4.31196C20.9221 4.70194 20.9879 5.08838 21.1037 5.46118C21.2162 5.82812 21.2939 6.20472 21.3359 6.58608C21.4092 6.93875 21.4825 7.29143 21.5742 7.6441C21.6375 7.88087 21.7129 8.11425 21.8002 8.34336C21.8918 8.59266 22.0201 8.82981 22.1118 9.07911C22.2706 9.52299 22.3867 9.97904 22.57 10.4047C22.7533 10.8303 23.0282 11.3289 23.2664 11.785C23.3336 11.9309 23.4009 12.0707 23.4742 12.2167C23.5475 12.3626 23.6819 12.6302 23.7919 12.8247C23.9446 13.1166 24.1095 13.4328 24.2745 13.6882C24.3661 13.8523 24.4517 14.0226 24.5555 14.1807C24.7877 14.5394 25.0198 14.8982 25.2703 15.2448C25.3598 15.3653 25.48 15.4598 25.6186 15.5184C26.0279 15.6826 26.4555 15.8042 26.8404 15.9684C27.2253 16.1326 27.6347 16.321 28.0257 16.5156C28.5694 16.7832 29.1253 17.0325 29.6446 17.3365C30.1639 17.6405 30.8299 18.0783 31.4103 18.4675C31.8132 18.7189 32.1971 18.9993 32.5588 19.3066C33.072 19.7566 33.5485 20.243 34.0251 20.7355C34.5016 21.2281 34.8071 21.5929 35.192 22.0307C35.3997 22.2678 35.6135 22.505 35.8029 22.7604C35.9923 23.0157 36.0961 23.2286 36.2428 23.4596C36.3894 23.6907 36.5727 23.94 36.7132 24.1954C36.9759 24.6453 37.2142 25.1014 37.4646 25.5574C37.5568 25.6963 37.6326 25.8452 37.6907 26.0013C37.7055 26.0786 37.7505 26.1469 37.8157 26.1913C37.8809 26.2357 37.9612 26.2527 38.0389 26.2384C38.2433 26.2447 38.4477 26.2324 38.6499 26.2019C38.6982 26.1929 38.7438 26.1728 38.783 26.1433C38.8223 26.1138 38.8541 26.0756 38.8759 26.0317C38.966 25.5374 39.0232 25.0377 39.047 24.5359C39.047 24.0555 38.9492 23.5751 38.9004 23.0887C38.8914 22.8139 38.8669 22.5399 38.827 22.2678C38.7354 21.8544 38.601 21.4591 38.4788 21.0517C38.4229 20.8432 38.3493 20.6398 38.2589 20.4437C38.1061 20.1275 37.9229 19.8356 37.7457 19.5255C37.5685 19.2154 37.318 18.7289 37.0614 18.3641C36.6704 17.8169 36.2489 17.2879 35.8396 16.7649C35.5463 16.4062 35.2286 16.0717 34.9109 15.7191C34.5932 15.3664 34.4283 15.111 34.1656 14.8252C33.6402 14.2841 33.1025 13.749 32.5649 13.22L31.343 12.0039L30.2128 10.8486C29.8829 10.5141 29.5408 10.1919 29.2231 9.85134C28.9054 9.51083 28.716 9.24329 28.4533 8.97574C28.0501 8.5501 27.6163 8.15486 27.2314 7.71706C26.8465 7.27926 26.4556 6.73202 26.0707 6.23949C25.9363 6.06924 25.7896 5.8929 25.6674 5.71049C25.5453 5.52807 25.4231 5.29093 25.2887 5.10243C25.1543 4.91393 25.0015 4.73152 24.8915 4.53086C24.7205 4.22075 24.5861 3.8924 24.4211 3.58229C24.2562 3.27219 24.0423 2.97424 23.9018 2.68845C23.657 2.10817 23.3208 1.5704 22.906 1.09534C22.7083 0.912038 22.4592 0.792936 22.1919 0.753839C21.9245 0.714741 21.6515 0.757497 21.4092 0.876441C21.2094 1.01217 21.0448 1.1932 20.929 1.40463C20.8132 1.61606 20.7496 1.85184 20.7433 2.09255C20.7677 2.37834 20.7677 2.60941 20.7677 2.88911L20.7433 2.85871ZM44.0994 45.4955V45.4651H44.3255C44.6676 45.4651 45.0097 45.4651 45.3519 45.4651C45.4068 45.4651 45.4618 45.3557 45.5168 45.2949C45.4129 45.212 45.3002 45.1406 45.1808 45.0821C44.7952 44.9351 44.399 44.8172 43.9956 44.7294C43.4319 44.6149 42.8598 44.5458 42.2849 44.5226C41.689 44.4681 41.0882 44.4989 40.501 44.6139C39.9165 44.6558 39.335 44.7329 38.7598 44.8449C38.3593 44.954 37.9507 45.0312 37.538 45.076C37.4646 45.076 37.4097 45.1733 37.3425 45.2219C37.4036 45.2888 37.4463 45.4043 37.5257 45.4226C37.8495 45.5199 38.1856 45.5928 38.5155 45.6719C38.5676 45.6864 38.6187 45.7047 38.6682 45.7266L39.4869 46.0489L39.7373 46.1583C40.0184 46.2738 40.3483 46.3955 40.5743 46.1583C40.8584 45.9227 41.1961 45.7599 41.5579 45.684C42.0272 45.561 42.5087 45.4896 42.9936 45.4712C43.3846 45.4712 43.7573 45.4955 44.0994 45.4955ZM44.0506 46.0489C43.5977 45.9956 43.1387 46.0605 42.7187 46.2374C42.4805 46.3772 42.3705 46.59 42.5965 46.7116C42.8829 46.8777 43.2016 46.9814 43.5313 47.0157C44.004 47.1149 44.4962 47.0617 44.9364 46.8637C45.1035 46.7889 45.2749 46.7239 45.4496 46.6691C45.5779 46.6022 45.5901 46.3286 45.4496 46.2799C45.2103 46.1776 44.9603 46.1021 44.7043 46.0549C44.5031 46.0378 44.3009 46.0358 44.0994 46.0489H44.0506ZM47.5207 41.7925C47.4352 42.8931 47.3496 43.9572 47.2702 45.0213L48.5776 44.4132C48.266 43.5923 47.9178 42.741 47.5451 41.7986L47.5207 41.7925Z" fill="#894E62"/>
<path d="M53.9907 50.5733C53.9051 50.4699 53.8135 50.3665 53.7341 50.2571C53.5203 49.9713 53.3064 49.649 53.1231 49.3875L52.9826 49.4727L53.2575 49.9287C53.2575 49.9591 53.337 49.9713 53.3431 49.9956C53.5274 50.4886 53.6024 51.0155 53.563 51.5401C53.5018 51.7321 53.3873 51.9031 53.2327 52.0332C53.0782 52.1634 52.8898 52.2475 52.6894 52.2758C52.6554 52.281 52.6206 52.2789 52.5875 52.2698C52.5543 52.2607 52.5234 52.2447 52.4969 52.2229C52.4704 52.2011 52.4488 52.1739 52.4335 52.1432C52.4182 52.1125 52.4097 52.079 52.4083 52.0447C52.3473 51.759 52.2678 51.4732 52.1884 51.1935C52.1884 51.1509 52.1212 51.1266 52.0845 51.0962C52.0479 51.0658 51.9929 51.2056 51.9929 51.2604C52.0203 51.5617 52.0203 51.865 51.9929 52.1664C51.9657 52.4093 51.8729 52.6405 51.7245 52.8353C51.5761 53.0301 51.3775 53.1813 51.1498 53.273C50.9543 53.3521 50.7832 53.4798 50.5877 53.571C50.5059 53.6101 50.4158 53.6288 50.325 53.6257C50.0379 53.6257 49.7508 53.6257 49.4636 53.6257C49.1059 53.599 48.762 53.4772 48.4678 53.273C48.4214 53.2638 48.3737 53.2638 48.3273 53.273C48.2623 53.544 48.1786 53.8101 48.0768 54.0696C47.8771 54.5431 47.6486 55.004 47.3925 55.4499C47.1216 55.8784 46.8173 56.285 46.4822 56.666C46.2986 56.8515 46.0935 57.0148 45.8713 57.1524C45.5719 57.3713 45.2604 57.5841 44.961 57.7909C44.7975 57.9112 44.6238 58.017 44.4417 58.1071C44.0263 58.3016 43.6047 58.4841 43.1893 58.6665C42.888 58.7156 42.5915 58.7909 42.3034 58.8914C41.7719 59.1286 41.1915 59.0009 40.6539 59.1407C39.8731 59.2911 39.074 59.3239 38.2834 59.238C37.7703 59.2099 37.2598 59.1449 36.7561 59.0435C36.4349 58.9619 36.1204 58.8562 35.8153 58.7273L35.7358 58.6969C35.428 58.6406 35.124 58.5654 34.8255 58.4719C34.4223 58.3199 34.0374 58.1192 33.6464 57.949C33.4815 57.876 33.3104 57.8273 33.1516 57.7483C32.7789 57.5659 32.4184 57.3652 32.0458 57.1706C31.6731 56.9761 31.2454 56.7633 30.8606 56.5626C30.4757 56.3619 30.2496 56.137 29.9564 55.9545C29.6631 55.7721 29.2782 55.3951 28.8689 55.1945C28.5576 54.992 28.2652 54.762 27.9953 54.5074C27.7875 54.3493 27.5554 54.2277 27.3477 54.0817C27.1399 53.9358 26.7367 53.65 26.4679 53.425C26.1991 53.2001 26.0402 53.0663 25.857 52.8778C25.747 52.7866 25.6554 52.6832 25.5454 52.592C25.4929 52.5609 25.4348 52.5402 25.3743 52.5312L25.3377 52.592C25.6248 53.0116 25.9181 53.4311 26.1991 53.8568C26.1991 53.9054 26.1991 54.0209 26.1991 54.0392C26.0908 54.1231 25.9659 54.1832 25.8325 54.2155C25.0486 54.4246 24.2334 54.4925 23.4254 54.4162C23.0467 54.3554 22.6923 54.1608 22.3135 54.1C21.9759 54.044 21.6595 53.8991 21.3971 53.6804C21.1245 53.4698 20.8711 53.2358 20.6396 52.9812C20.425 52.7471 20.2497 52.4802 20.1203 52.1907C19.903 51.7957 19.8256 51.3396 19.9003 50.8955C20.0712 50.1224 20.5185 49.4374 21.1589 48.968C21.2518 48.8795 21.3302 48.7768 21.391 48.664C21.3544 48.664 21.2566 48.6275 21.2016 48.664C20.9384 48.7944 20.6834 48.9406 20.4379 49.1018C20.2241 49.2416 20.0469 49.4362 19.827 49.576C19.7746 49.6048 19.7158 49.6199 19.6559 49.6199C19.5961 49.6199 19.5373 49.6048 19.4849 49.576C19.3016 49.3997 19.0694 49.2538 19.0572 48.9254C19.0486 48.6066 19.1078 48.2895 19.231 47.995C19.3542 47.7005 19.5386 47.4353 19.772 47.2168C20.2227 46.7861 20.7329 46.4216 21.2872 46.1345C21.5132 45.9946 21.8309 46.0007 22.063 45.8669C22.3572 45.7447 22.673 45.6827 22.9917 45.6845C23.2544 45.6419 23.5171 45.569 23.7737 45.5021C23.8198 45.4816 23.863 45.455 23.902 45.423V45.3318H21.8798C21.7087 45.046 21.9408 44.8879 22.063 44.7663C22.4052 44.3996 22.8216 44.1095 23.2849 43.915C23.682 43.7691 24.073 43.6353 24.5068 43.5259C25.7287 43.2158 26.9505 43.4043 28.1358 43.4164C28.611 43.4665 29.0786 43.5727 29.5287 43.7326H29.6326C30.0724 43.8117 30.5184 43.8482 30.9461 43.9637C31.4959 44.1157 32.0274 44.3285 32.5712 44.5049C32.8278 44.59 33.0966 44.6386 33.3532 44.7238C33.6098 44.8089 33.8908 44.9366 34.1657 45.0339C34.4407 45.1312 34.7339 45.2041 35.0088 45.3075C35.2417 45.3934 35.47 45.4908 35.6931 45.5994C35.7297 45.5994 35.7664 45.6541 35.8091 45.6662C36.0841 45.7453 36.3712 45.7939 36.64 45.8973C37.0616 46.0554 37.477 46.25 37.8986 46.4142C38.0983 46.494 38.3022 46.5631 38.5095 46.6209C38.8089 46.706 39.1204 46.7668 39.4015 46.8641C39.6825 46.9614 39.9269 47.0709 40.1957 47.1742C40.2633 47.2045 40.3356 47.223 40.4095 47.229C40.962 47.3063 41.4765 47.5528 41.8819 47.9343C42.0039 48.0144 42.1352 48.0798 42.2729 48.1289C42.4952 48.2302 42.7238 48.3175 42.9571 48.3903C43.1836 48.4561 43.4143 48.5069 43.6475 48.5423C43.7567 48.5606 43.8682 48.5606 43.9774 48.5423C44.2034 48.4998 44.4295 48.4572 44.6433 48.3964C44.8875 48.3482 45.1225 48.262 45.3398 48.141C45.734 47.8642 46.1077 47.5594 46.4578 47.229C46.65 47.0498 46.802 46.8322 46.9038 46.5905C47.0731 46.1834 47.389 45.8538 47.7896 45.6662C48.0401 45.5386 48.2723 45.3744 48.5228 45.2467C48.737 45.155 48.9677 45.1077 49.2009 45.1077C49.4341 45.1077 49.6648 45.155 49.8791 45.2467C49.9373 45.2732 49.999 45.2917 50.0623 45.3014C50.4891 45.3451 50.9037 45.4689 51.2842 45.6662C51.7312 45.8553 52.144 46.1162 52.5061 46.4385C52.7688 46.6756 53.0804 46.8702 53.3186 47.1317C53.4967 47.3735 53.654 47.6298 53.7891 47.8978C53.8379 47.9769 53.9296 48.0377 53.9723 48.1228C54.2569 48.5977 54.395 49.1453 54.3695 49.6977C54.326 49.9909 54.2648 50.2813 54.1862 50.5672L53.9907 50.5733ZM46.8732 49.2477V49.1808C46.7516 49.1758 46.6299 49.1902 46.5128 49.2234C46.3417 49.3024 46.2012 49.4605 46.024 49.5274C45.5903 49.6916 45.3398 50.1355 44.8449 50.2267C44.5082 50.371 44.1555 50.4751 43.7941 50.5368C43.061 50.5368 42.3279 50.5368 41.6008 50.5368C41.1209 50.4881 40.6437 50.415 40.1713 50.3179H40.1224C39.8291 50.2084 39.542 50.099 39.2548 49.9774C39.0154 49.884 38.7827 49.7743 38.5584 49.649C38.3079 49.5092 38.0696 49.3389 37.8252 49.199C37.5809 49.0592 37.2815 48.9011 37.0066 48.7612C36.5442 48.4966 36.0645 48.263 35.5709 48.062C35.1155 47.9496 34.6517 47.8744 34.1841 47.837L33.5731 47.7154C33.4836 47.7093 33.3938 47.7093 33.3043 47.7154V47.8188C33.5242 47.8796 33.7381 47.9586 33.958 48.0073C34.1779 48.0559 34.3979 48.0438 34.6056 48.1046C34.8771 48.1884 35.1443 48.2858 35.4059 48.3964C35.858 48.5849 36.3834 48.664 36.6645 49.1443C36.7294 49.2884 36.7846 49.4367 36.8294 49.5882C36.9394 49.8801 37.0677 50.1659 37.1532 50.4699C37.2387 50.7739 37.3243 51.2056 37.4159 51.5705C37.5076 51.9353 37.6297 52.3853 37.7458 52.7866C37.7897 53.0509 37.8786 53.3059 38.0085 53.5406C38.2646 53.9957 38.6194 54.3883 39.0471 54.6898C39.4677 54.9914 39.9654 55.1684 40.4828 55.2006C41.0021 55.2006 41.5214 55.2006 42.0407 55.2006C42.1496 55.1959 42.257 55.1733 42.3584 55.1337C42.6761 55.0364 42.9693 54.9452 43.2993 54.8296C43.5385 54.7405 43.7712 54.6348 43.9957 54.5135C44.2454 54.3822 44.4844 54.2318 44.7105 54.0635C44.9365 53.9097 45.1418 53.7278 45.3215 53.5223C45.5265 53.2608 45.7084 52.9821 45.8652 52.6893C45.9774 52.5153 46.0542 52.3211 46.0912 52.1177C46.189 51.3637 46.244 50.6097 46.3295 49.8497C46.3402 49.7485 46.3855 49.654 46.4578 49.5821C46.5883 49.4612 46.7271 49.3494 46.8732 49.2477V49.2477Z" fill="white"/>
<path d="M37.4464 26.9319C37.648 26.8894 37.8374 26.865 38.0146 26.8164C38.4899 26.7374 38.975 26.7374 39.4503 26.8164C40.1502 26.8371 40.8205 27.1018 41.3442 27.5643C41.6498 27.8361 41.9319 28.1331 42.1873 28.4521C42.3035 28.6089 42.3828 28.7897 42.4195 28.9811C42.4342 29.0491 42.475 29.1087 42.5331 29.1473C42.5913 29.1859 42.6623 29.2004 42.731 29.1878C43.0204 29.166 43.3104 29.2202 43.572 29.3451C43.8336 29.4699 44.0577 29.661 44.2217 29.8992C44.4539 30.1972 44.7166 30.4708 44.9182 30.787C45.0283 31.0111 45.1163 31.2452 45.1809 31.4863C45.3459 31.8997 45.523 32.3132 45.6758 32.7024C45.7098 32.8439 45.7282 32.9886 45.7307 33.1341L45.6086 33.1827C45.5257 33.0302 45.4317 32.8839 45.3275 32.7449C45.1756 32.5736 45.0079 32.4168 44.8266 32.2767C44.6616 32.1581 44.4903 32.0485 44.3134 31.9484C44.2857 31.9258 44.2548 31.9073 44.2217 31.8937C43.8355 31.8042 43.4436 31.7413 43.0487 31.7052C42.6777 31.699 42.3149 31.8144 42.0162 32.0335C41.969 32.0603 41.9169 32.0776 41.8629 32.0841C41.809 32.0907 41.7542 32.0865 41.7019 32.0718C41.6496 32.0571 41.6007 32.0321 41.5582 31.9984C41.5156 31.9647 41.4803 31.9229 41.4542 31.8754C41.3622 31.7351 41.2488 31.61 41.1182 31.5045C41.0021 31.4133 40.8555 31.3646 40.7272 31.2795C40.229 30.8845 39.6107 30.6701 38.9738 30.6715C38.8943 30.6715 38.8027 30.6167 38.7172 30.6046C38.5669 30.5713 38.4127 30.5591 38.259 30.5681C38.0511 30.5908 37.8463 30.6356 37.648 30.7019C37.3501 30.7902 37.0582 30.8978 36.7744 31.0241C36.4838 31.155 36.2057 31.3117 35.9435 31.4923C35.6862 31.6645 35.4521 31.8689 35.247 32.1004C34.8339 32.5965 34.4504 33.1162 34.0985 33.657C33.908 33.9994 33.7524 34.36 33.6342 34.7333C33.4509 35.2197 33.2798 35.7122 33.1088 36.1987C33.0959 36.2239 33.0857 36.2504 33.0782 36.2777C33.0272 36.6876 32.9496 37.0939 32.8461 37.4938C32.6506 38.1019 32.7544 38.7768 32.62 39.391C32.4922 40.2524 32.4614 41.1253 32.5284 41.9934C32.5681 42.4807 32.6436 42.9644 32.7544 43.4406L32.6017 43.6838C32.2394 43.4721 31.8387 43.3336 31.4226 43.2764C31.0779 43.2112 30.7417 43.1071 30.4206 42.9663C30.3842 42.9606 30.3471 42.9606 30.3107 42.9663C29.993 42.9663 29.6997 42.8569 29.3759 42.8082C28.61 42.624 27.8239 42.5361 27.036 42.5468C26.9136 42.5365 26.7938 42.5057 26.6817 42.4556C26.7184 42.3522 26.755 42.2367 26.8039 42.1333C27.0312 41.7674 27.2353 41.3876 27.4148 40.9962C27.5676 40.6568 27.7389 40.3259 27.928 40.0051C28.093 39.6281 28.2152 39.2268 28.3618 38.8376C28.4534 38.5944 28.5695 38.3573 28.6672 38.1201C28.765 37.883 28.8261 37.7431 28.8872 37.5486C28.9788 37.2567 29.046 36.9405 29.1438 36.6669C29.2415 36.3933 29.3515 36.1379 29.4554 35.8764C29.4748 35.8443 29.4892 35.8094 29.4981 35.773C29.5775 35.4508 29.6325 35.1163 29.7364 34.8002C29.8952 34.3137 30.0907 33.8334 30.2618 33.3469C30.3412 33.128 30.384 32.8969 30.4817 32.6841C30.6406 32.3315 30.8239 31.9909 31.0071 31.6504C31.1411 31.3702 31.2984 31.1017 31.4776 30.8478C31.8197 30.3918 32.1862 29.954 32.5711 29.5344C32.8304 29.251 33.1101 28.9868 33.4081 28.7439C33.6516 28.5439 33.9088 28.361 34.1779 28.1967C34.4589 28.0143 34.7461 27.8501 35.0332 27.6859L35.5586 27.4123C35.412 27.1022 35.2959 26.865 35.1982 26.6218C34.9624 26.1025 34.5963 25.6522 34.1351 25.3145C33.7106 24.937 33.208 24.6568 32.6628 24.4936C32.0885 24.3416 31.5264 24.1409 30.9583 23.9646H30.8483C29.9319 23.9038 29.0155 23.8065 28.1052 23.7822C27.0877 23.7109 26.066 23.7231 25.0505 23.8187C23.4621 23.9605 21.8658 23.993 20.273 23.916C19.4482 23.916 18.6234 23.7944 17.8292 23.7214C17.3588 23.6728 16.8945 23.618 16.4302 23.539C15.9658 23.4599 15.6054 23.3322 15.2083 23.2349L15.0189 23.1924C14.5912 23.1133 14.1575 23.0586 13.7359 22.9613C13.3144 22.864 12.8012 22.712 12.343 22.5722C11.8848 22.4323 11.5549 22.329 11.17 22.183C10.7851 22.0371 10.3574 21.8486 9.9481 21.6844C9.74038 21.5993 9.52655 21.5324 9.33716 21.4412C8.98282 21.2709 8.64069 21.0885 8.29245 20.9122C8.14583 20.8331 7.9992 20.7602 7.84036 20.6933C7.49803 20.5309 7.16913 20.3418 6.85675 20.1278C6.45353 19.8724 6.06864 19.5988 5.67764 19.3373C5.1393 19.0006 4.63586 18.6116 4.17473 18.1759C3.84482 17.8476 3.48437 17.5679 3.17279 17.2152C2.73283 16.7547 2.32461 16.2651 1.95091 15.7498C1.68086 15.3134 1.45572 14.8509 1.27889 14.3695C1.19856 14.1525 1.1492 13.9253 1.13226 13.6946C1.11209 13.5176 1.1427 13.3386 1.22055 13.1783C1.2984 13.0179 1.4203 12.8828 1.57213 12.7886C1.73107 12.6706 1.91647 12.5929 2.11232 12.5622C2.30816 12.5315 2.50857 12.5486 2.69626 12.6122C3.01235 12.7238 3.33465 12.8172 3.66154 12.8919C3.99756 12.9892 4.32135 13.1108 4.65126 13.2203H4.70625C5.10947 13.2993 5.51269 13.3845 5.92813 13.4513C6.48341 13.4869 7.03498 13.5661 7.57766 13.6885C8.03586 13.8344 8.50017 13.7675 8.93394 13.877C9.65104 13.997 10.3758 14.0661 11.1028 14.0837C11.5549 14.1384 12.0131 14.1993 12.4652 14.2418C13.3833 14.2808 14.2988 14.3661 15.2083 14.4972C15.8192 14.6067 16.4302 14.4972 16.9922 14.6553C17.6826 14.8195 18.379 14.7526 19.0694 14.8499C19.4421 14.8985 19.8148 14.9472 20.1813 15.0201C20.7128 15.1235 21.2443 15.2451 21.7759 15.3546C22.1424 15.4336 22.509 15.4944 22.8694 15.5795C23.2299 15.6647 23.7248 15.8106 24.1524 15.9261C24.2257 15.9261 24.3051 15.9261 24.3724 15.9626L25.3621 16.291C25.6309 16.3822 25.8997 16.4551 26.1624 16.5524C26.4251 16.6497 26.6695 16.7896 26.9322 16.8929C27.1949 16.9963 27.3965 17.0328 27.6164 17.1301C27.9708 17.2943 28.319 17.4767 28.6672 17.653C29.0155 17.8293 29.2782 17.951 29.5959 18.1151C29.9136 18.2793 30.1213 18.4192 30.3779 18.5772C30.6345 18.7353 30.9094 18.8995 31.1599 19.0759C31.5672 19.3677 31.9582 19.6657 32.3329 19.9697C32.6445 20.219 32.9438 20.4683 33.2554 20.7419C33.6628 21.1019 34.0484 21.4856 34.4101 21.8912C34.7888 22.3168 35.131 22.785 35.4731 23.2471C35.8152 23.7092 36.084 24.0862 36.3712 24.5301C36.5966 24.9534 36.8005 25.3877 36.9821 25.8313C37.1471 26.2144 37.2937 26.5975 37.4464 26.9319ZM4.45576 15.6403V15.7376C4.89564 15.8714 5.32329 16.0173 5.76317 16.1389C6.1053 16.2302 6.45353 16.291 6.79566 16.3761C6.99176 16.4212 7.18382 16.4822 7.36994 16.5585C7.50646 16.6089 7.62387 16.7003 7.70595 16.82C7.98087 17.428 8.56738 17.6834 9.03169 18.0786C9.29166 18.2612 9.57014 18.416 9.86257 18.5408C10.1925 18.711 10.5163 18.8874 10.8523 19.0394C11.1883 19.1914 11.4327 19.2704 11.7259 19.3799C12.0192 19.4893 12.1963 19.5623 12.4346 19.6353C12.6729 19.7082 13.0456 19.7873 13.3266 19.8785C13.6076 19.9697 13.9375 20.1156 14.2308 20.1947C14.6279 20.298 15.0311 20.3588 15.4526 20.4318H15.5015C15.8925 20.5473 16.2774 20.6872 16.6684 20.7662C17.012 20.791 17.352 20.8522 17.6826 20.9487C17.9818 21.0574 18.2939 21.1269 18.6112 21.1554C19.0394 21.1706 19.465 21.2276 19.882 21.3257C20.2799 21.4422 20.6898 21.5136 21.1038 21.5385C21.7148 21.6114 22.2952 21.654 22.8878 21.727C23.7614 21.8425 24.6534 21.6844 25.527 21.9155C25.9049 21.9471 26.2843 21.9573 26.6634 21.9459C27.0299 21.9945 27.3721 21.8303 27.7447 21.8851C28.0362 21.8866 28.3257 21.8372 28.6 21.7391C28.7881 21.7056 28.9674 21.6345 29.127 21.5299C29.2867 21.4254 29.4233 21.2897 29.5287 21.1311C29.55 21.0919 29.5613 21.048 29.5613 21.0034C29.5613 20.9588 29.55 20.9149 29.5287 20.8757C29.1395 20.5275 28.7316 20.2007 28.3068 19.8967C27.9219 19.6413 27.4942 19.4589 27.0849 19.24C26.6756 19.0211 26.2113 18.7414 25.7592 18.5286C25.4051 18.3547 25.032 18.2221 24.6473 18.1334C24.1654 17.9317 23.6607 17.7888 23.1444 17.7077C23.1162 17.714 23.087 17.714 23.0588 17.7077C22.6185 17.4731 22.1286 17.346 21.6292 17.3368C21.575 17.3311 21.5217 17.3189 21.4704 17.3003C21.141 17.1768 20.8043 17.0732 20.4623 16.9902C20.1273 16.9558 19.7948 16.9009 19.4665 16.8261C18.99 16.7038 18.5033 16.6244 18.0125 16.5889C17.5842 16.5673 17.1577 16.5186 16.7356 16.443C16.0758 16.2727 15.3793 16.3578 14.6951 16.2241C13.8337 16.066 12.9356 16.1633 12.0497 16.066C10.8044 15.9575 9.5529 15.9372 8.30468 16.0052C7.33978 15.9757 6.37717 15.8945 5.42105 15.762C5.35384 15.762 5.29275 15.6951 5.21944 15.6829C4.94451 15.6282 4.70014 15.5187 4.45576 15.6647V15.6403ZM33.8236 30.0877C33.9702 30.0877 34.0924 30.1607 34.1657 30.1242C34.3245 30.0173 34.4755 29.8994 34.6178 29.7715C34.7192 29.6877 34.8275 29.6124 34.9416 29.5466C35.2165 29.3824 35.5159 29.2547 35.7786 29.0723C36.1609 28.84 36.5872 28.6889 37.031 28.6284C37.7673 28.5035 38.5244 28.6276 39.1815 28.9811C39.4503 29.1148 39.6641 29.352 39.9329 29.4858C40.0857 29.5587 40.2018 29.8567 40.4645 29.6439C40.0423 29.0657 39.4639 28.6187 38.7966 28.3548C38.3751 28.2514 37.9657 28.1055 37.5747 28.0325C37.422 28.0325 37.2387 28.148 37.0676 28.1541C36.6 28.1642 36.1447 28.3055 35.7541 28.5615C35.3802 28.7953 35.0192 29.0491 34.6728 29.3216C34.3734 29.5587 34.1351 29.8141 33.8236 30.112V30.0877Z" fill="#F9B5B5"/>
<path d="M41.7473 33.2862C41.8353 33.0792 41.9697 32.8949 42.1402 32.7474C42.3106 32.5998 42.5127 32.493 42.7309 32.4349C42.9396 32.3539 43.1607 32.3087 43.3846 32.3011C43.6656 32.3498 43.9222 32.52 44.2032 32.5991C44.462 32.6827 44.6897 32.8416 44.8569 33.0551C45.0402 33.2558 45.1991 33.4747 45.3701 33.6936C45.4484 33.785 45.516 33.885 45.5717 33.9915C45.7672 34.4233 45.9444 34.8671 46.1827 35.2928C46.3641 35.8072 46.501 36.3361 46.592 36.8737C46.7386 37.4149 46.6836 37.9561 46.7936 38.479C46.9574 39.7165 46.9963 40.9672 46.9097 42.2124C46.9067 42.7777 46.839 43.3407 46.7081 43.8907C46.6277 44.1741 46.5664 44.4625 46.5248 44.7541C46.5248 44.9122 46.2193 44.9609 46.036 44.8514C45.7444 44.6379 45.3958 44.5152 45.0341 44.4987C44.9931 44.5045 44.9512 44.4986 44.9134 44.4817C44.8756 44.4649 44.8434 44.4377 44.8204 44.4034C44.7974 44.3691 44.7846 44.329 44.7835 44.2878C44.7824 44.2466 44.793 44.2059 44.8142 44.1704C44.9403 43.9238 45.0465 43.6676 45.1319 43.4042C45.2369 42.9635 45.3144 42.5168 45.364 42.0665C45.4007 41.7382 45.364 41.4037 45.364 41.0754C45.3749 40.5746 45.2942 40.0759 45.1257 39.6039C45.0436 39.1327 44.8022 38.7037 44.4415 38.3878C44.2093 38.1993 43.9589 38.0169 43.6595 38.1263C43.4347 38.2197 43.2279 38.3514 43.0486 38.5155C42.7169 38.8664 42.4594 39.2799 42.291 39.7316C42.2177 39.8654 42.2177 40.0295 42.1566 40.1755C42.3286 40.5851 42.6069 40.9418 42.963 41.2091C43.2379 41.4889 43.519 41.7564 43.7939 42.03C43.8175 42.0599 43.8332 42.0953 43.8394 42.1328C43.8456 42.1703 43.8421 42.2088 43.8293 42.2447C43.8165 42.2805 43.7947 42.3125 43.7661 42.3377C43.7375 42.3629 43.7029 42.3805 43.6656 42.3888C43.1585 42.5286 42.6576 42.6624 42.1566 42.8144C41.8939 42.8935 41.8511 43.1184 41.9489 43.3799C42.0316 43.6193 42.081 43.869 42.0955 44.1217C42.0955 44.2981 41.9733 44.3102 41.8267 44.3102C40.782 44.3102 39.7312 44.3102 38.6926 44.3954C38.216 44.4379 37.7395 44.4927 37.263 44.5535C36.9679 44.6023 36.6761 44.6693 36.3893 44.7541C36.3221 44.7541 36.2672 44.8271 36.2 44.8453C36.1327 44.8636 35.9922 44.9183 35.9189 44.8879C35.7352 44.8005 35.5577 44.701 35.3874 44.5899C35.3557 44.5696 35.3205 44.5552 35.2835 44.5474C34.8961 44.4853 34.5221 44.3578 34.1777 44.1704C33.9572 44.0745 33.7252 44.007 33.4874 43.9697C33.374 43.9546 33.2706 43.8972 33.1981 43.8092C33.1255 43.7212 33.0892 43.6091 33.0964 43.4954C33.1224 43.203 33.108 42.9084 33.0536 42.6198C32.8928 41.8194 32.8557 40.9992 32.9437 40.1876C32.9602 39.6173 33.0133 39.0486 33.1025 38.4851C33.1514 38.1506 33.2247 37.8223 33.3041 37.5C33.4263 37.0318 33.5363 36.5636 33.6951 36.1076C33.8539 35.6515 34.0433 35.311 34.2205 34.8915C34.3977 34.4719 34.4832 34.2165 34.6543 33.9003C34.8115 33.6491 34.9893 33.4111 35.1858 33.1889C35.3648 32.93 35.5695 32.6896 35.7967 32.4714C36.1498 32.1889 36.519 31.9269 36.9025 31.687C37.5434 31.3131 38.2981 31.1815 39.0286 31.3161C39.6821 31.3959 40.2817 31.7171 40.7087 32.216C40.9164 32.441 41.1608 32.6356 41.3807 32.8545C41.4968 32.9639 41.6006 33.1098 41.7473 33.2862ZM39.4013 41.5557C39.2311 40.9039 38.9181 40.2976 38.4849 39.7802C38.0125 39.3154 37.4178 38.9928 36.7692 38.8497C36.1207 38.7066 35.4447 38.7489 34.8192 38.9715C34.8805 39.0074 34.9437 39.0398 35.0086 39.0688C35.4729 39.2026 35.9434 39.312 36.4077 39.458C36.6583 39.5286 36.8956 39.6395 37.1102 39.7863C37.434 40.0234 37.7212 40.3457 38.0144 40.5889C38.2405 40.7592 38.1366 40.8504 37.9656 40.899C37.7439 40.9576 37.5165 40.9923 37.2874 41.0024C36.9209 41.0024 36.5543 41.0024 36.1877 41.0024L36.1266 41.1179C36.1999 41.2031 36.261 41.3551 36.3466 41.3733C36.8231 41.4524 37.2996 41.5071 37.7823 41.5497C38.2649 41.5922 38.7048 41.5922 39.1691 41.6044C39.2486 41.6008 39.327 41.5844 39.4013 41.5557V41.5557Z" fill="white"/>
<path d="M20.7676 2.8892C20.7676 2.63381 20.7676 2.37843 20.7676 2.11696C20.7739 1.87625 20.8376 1.64047 20.9534 1.42904C21.0691 1.21761 21.2337 1.03658 21.4336 0.900855C21.6759 0.781911 21.9489 0.739146 22.2162 0.778243C22.4836 0.817341 22.7326 0.936452 22.9304 1.11975C23.3452 1.59481 23.6813 2.13258 23.9262 2.71286C24.0667 3.02296 24.2805 3.32091 24.4455 3.6067C24.6104 3.89248 24.7449 4.24515 24.9159 4.55526C25.0259 4.75592 25.1847 4.93226 25.313 5.12684C25.4413 5.32141 25.5574 5.54639 25.6918 5.73489C25.8262 5.92339 25.9606 6.09364 26.095 6.2639C26.4799 6.75642 26.8465 7.26719 27.2558 7.74147C27.6651 8.21576 28.0683 8.5745 28.4777 9.00014C28.7404 9.28593 28.9787 9.6082 29.2475 9.87574C29.5163 10.1433 29.9073 10.5385 30.2372 10.873L31.3674 12.0283L32.5893 13.2444C33.1269 13.7734 33.6645 14.3085 34.19 14.8496C34.4527 15.1293 34.6787 15.4577 34.9353 15.7435C35.1919 16.0293 35.5462 16.4306 35.8639 16.7893C36.2855 17.3123 36.707 17.8413 37.0858 18.3885C37.3424 18.7533 37.544 19.1607 37.77 19.5499C37.9961 19.9391 38.1305 20.158 38.2832 20.4681C38.3737 20.6642 38.4472 20.8676 38.5032 21.0761C38.6254 21.4835 38.7598 21.8788 38.8514 22.2922C38.8913 22.5643 38.9157 22.8383 38.9247 23.1131C38.9736 23.5996 39.0713 24.0799 39.0713 24.5603C39.0476 25.0621 38.9904 25.5618 38.9003 26.0561C38.8784 26.1 38.8466 26.1382 38.8074 26.1677C38.7682 26.1973 38.7226 26.2173 38.6742 26.2263C38.4721 26.2568 38.2676 26.2691 38.0633 26.2628C37.9856 26.2771 37.9053 26.2601 37.8401 26.2157C37.7748 26.1713 37.7299 26.103 37.7151 26.0257C37.657 25.8696 37.5812 25.7207 37.489 25.5818C37.2385 25.1258 37.0003 24.6697 36.7376 24.2198C36.597 23.9644 36.4199 23.7272 36.2671 23.484C36.1144 23.2408 35.9922 23.0037 35.8273 22.7848C35.6623 22.5659 35.4302 22.2922 35.2163 22.0551C34.8314 21.6173 34.4527 21.1734 34.0494 20.7599C33.6462 20.3465 33.0964 19.781 32.5832 19.331C32.2214 19.0237 31.8376 18.7433 31.4346 18.4919C30.8542 18.1027 30.2738 17.7136 29.669 17.3609C29.0642 17.0082 28.5938 16.8076 28.05 16.54C27.659 16.3455 27.268 16.157 26.8648 15.9928C26.4616 15.8286 26.0278 15.707 25.6429 15.5428C25.5044 15.4842 25.3841 15.3897 25.2947 15.2692C25.0442 14.9226 24.8121 14.5639 24.5799 14.2051C24.476 14.047 24.3905 13.8767 24.2989 13.7126C24.1339 13.4268 23.969 13.141 23.8162 12.8491C23.7063 12.6485 23.6024 12.4417 23.4985 12.2411C23.3947 12.0404 23.358 11.9553 23.2908 11.8094C23.0526 11.3533 22.796 10.9034 22.5944 10.4291C22.3927 9.95479 22.295 9.54739 22.1361 9.10351C22.0445 8.85421 21.9162 8.61707 21.8246 8.36777C21.7373 8.13867 21.6619 7.90528 21.5985 7.66851C21.5069 7.31584 21.4336 6.96316 21.3603 6.61049C21.3183 6.22914 21.2406 5.85252 21.1281 5.48559C21.0122 5.11278 20.9465 4.72635 20.9326 4.33636C20.8593 3.84992 20.7799 3.36955 20.7004 2.88311L20.7676 2.8892Z" fill="#F9B5B5"/>
<path d="M44.0995 45.4957C43.7329 45.4957 43.3603 45.4957 42.9937 45.4957C42.5087 45.5141 42.0273 45.5855 41.558 45.7086C41.1962 45.7844 40.8585 45.9473 40.5744 46.1828C40.3544 46.4078 40.0184 46.2862 39.7374 46.1828L39.4869 46.0734L38.6683 45.7511C38.6187 45.7292 38.5677 45.711 38.5155 45.6964C38.1856 45.6174 37.8496 45.5444 37.5258 45.4471C37.4464 45.4471 37.4036 45.3133 37.3425 45.2464C37.4097 45.1978 37.4647 45.1188 37.538 45.1005C37.9508 45.0557 38.3594 44.9785 38.7599 44.8694C39.3351 44.7574 39.9165 44.6803 40.5011 44.6384C41.0883 44.5234 41.689 44.4927 42.285 44.5472C42.8599 44.5703 43.4319 44.6394 43.9956 44.7539C44.399 44.8417 44.7952 44.9596 45.1809 45.1066C45.3003 45.1652 45.413 45.2365 45.5169 45.3194C45.4619 45.3802 45.4069 45.4836 45.3519 45.4897C45.0098 45.4897 44.6677 45.4897 44.3255 45.4897H44.0995V45.4957Z" fill="white"/>
<path d="M44.0995 46.0491C44.3211 46.0308 44.5439 46.0308 44.7654 46.0491C45.0215 46.0962 45.2715 46.1717 45.5108 46.274C45.6391 46.3227 45.6269 46.5963 45.5108 46.6632C45.3361 46.718 45.1647 46.783 44.9976 46.8578C44.5574 47.0558 44.0652 47.1091 43.5924 47.0098C43.2627 46.9755 42.9441 46.8719 42.6577 46.7058C42.4317 46.5842 42.5416 46.3713 42.7799 46.2315C43.1967 46.0588 43.6512 45.996 44.0995 46.0491Z" fill="white"/>
<path d="M46.8731 49.2474C46.7304 49.3357 46.5937 49.4332 46.4638 49.5393C46.3915 49.6112 46.3462 49.7056 46.3355 49.8068C46.25 50.5669 46.195 51.3209 46.0972 52.0749C46.0602 52.2783 45.9834 52.4724 45.8712 52.6464C45.7144 52.9392 45.5325 53.2179 45.3275 53.4795C45.1478 53.685 44.9425 53.8668 44.7165 54.0206C44.4904 54.1889 44.2514 54.3393 44.0017 54.4706C43.7772 54.592 43.5445 54.6976 43.3053 54.7868C42.9998 54.9023 42.6943 54.9935 42.3644 55.0908C42.263 55.1305 42.1556 55.1531 42.0467 55.1577C41.5274 55.1577 41.0081 55.1577 40.4888 55.1577C39.9714 55.1256 39.4737 54.9485 39.0531 54.6469C38.6254 54.3455 38.2706 53.9529 38.0145 53.4977C37.8846 53.263 37.7957 53.0081 37.7518 52.7437C37.6337 52.3383 37.5237 51.933 37.4219 51.5276C37.3303 51.1628 37.2631 50.7858 37.1592 50.427C37.0554 50.0683 36.9454 49.819 36.8354 49.5453C36.7906 49.3938 36.7354 49.2456 36.6705 49.1015C36.3894 48.6211 35.864 48.542 35.4119 48.3535C35.1503 48.2429 34.8831 48.1455 34.6116 48.0617C34.4039 48.0009 34.1778 48.007 33.964 47.9644C33.7502 47.9218 33.5302 47.8367 33.3103 47.7759V47.6725C33.3998 47.6664 33.4896 47.6664 33.5791 47.6725L34.1901 47.7941C34.6577 47.8315 35.1215 47.9068 35.5769 48.0191C36.0705 48.2202 36.5502 48.4538 37.0126 48.7184C37.2875 48.8582 37.5624 49.0042 37.8313 49.1562C38.1001 49.3082 38.3139 49.4663 38.5644 49.6061C38.7887 49.7314 39.0214 49.8411 39.2608 49.9345C39.548 50.0561 39.8351 50.1656 40.1284 50.275H40.1773C40.6497 50.3721 41.1269 50.4452 41.6068 50.4939C42.3339 50.5304 43.067 50.4939 43.8001 50.4939C44.1615 50.4322 44.5142 50.3281 44.8509 50.1838C45.3458 50.0804 45.5963 49.6487 46.03 49.4845C46.2072 49.4176 46.3477 49.2596 46.5188 49.1805C46.6359 49.1473 46.7576 49.1329 46.8792 49.1379L46.8731 49.2474ZM40.611 50.9317C40.6965 51.1506 40.776 51.3209 40.831 51.4972C40.9226 51.783 40.9959 52.1052 41.0753 52.3728C41.0753 52.3728 41.1181 52.4336 41.1303 52.464C41.2484 52.7197 41.3524 52.9815 41.4419 53.2484C41.5152 53.5463 41.6313 53.6801 41.9429 53.6497C42.213 53.6396 42.4795 53.5841 42.731 53.4855C43.1879 53.3023 43.663 53.1678 44.1484 53.0842C44.2415 53.0649 44.327 53.0189 44.3943 52.952C44.4615 52.885 44.5077 52.7999 44.5271 52.7072C44.6432 52.312 44.6921 51.8924 44.7837 51.4911C44.7837 51.3269 44.8937 51.1688 44.9181 51.0047C44.93 50.8813 44.93 50.7571 44.9181 50.6338C44.466 50.731 44.0506 50.8466 43.6229 50.9074C43.4397 50.9378 43.3602 50.9864 43.3664 51.1749C43.3725 51.3634 43.3664 51.6553 43.3664 51.8924C43.3823 52.0021 43.3577 52.1138 43.297 52.2067C43.2363 52.2995 43.1436 52.3672 43.0364 52.3971C43.0364 52.2938 43.0364 52.2086 43.0364 52.1235C43.0364 51.8073 43.0364 51.5154 43.0364 51.181C43.0364 51.0959 42.9204 50.9499 42.8532 50.9499C42.12 50.9256 41.4175 50.9317 40.611 50.9317Z" fill="#894E62"/>
<path d="M4.4556 15.6646C4.69997 15.5186 4.94435 15.6281 5.18872 15.6646C5.26203 15.6646 5.32313 15.7375 5.39033 15.7436C6.34646 15.8762 7.30906 15.9574 8.27396 15.9868C9.52218 15.9188 10.7737 15.9392 12.019 16.0477C12.9049 16.1449 13.803 16.0476 14.6644 16.2057C15.3486 16.3395 16.0451 16.2544 16.7049 16.4246C17.127 16.5002 17.5535 16.549 17.9818 16.5706C18.4726 16.6061 18.9592 16.6854 19.4358 16.8077C19.7641 16.8826 20.0966 16.9374 20.4316 16.9719C20.7736 17.0549 21.1103 17.1584 21.4397 17.282C21.4909 17.3005 21.5443 17.3128 21.5985 17.3185C22.0978 17.3277 22.5878 17.4548 23.0281 17.6894C23.0563 17.6957 23.0855 17.6957 23.1136 17.6894C23.63 17.7705 24.1346 17.9134 24.6166 18.115C25.0012 18.2038 25.3743 18.3364 25.7285 18.5103C26.1805 18.7231 26.6143 18.9846 27.0542 19.2217C27.4941 19.4588 27.8912 19.623 28.2761 19.8784C28.7009 20.1824 29.1088 20.5092 29.4979 20.8574C29.5193 20.8966 29.5305 20.9405 29.5305 20.9851C29.5305 21.0297 29.5193 21.0735 29.4979 21.1127C29.3926 21.2714 29.2559 21.4071 29.0963 21.5116C28.9367 21.6161 28.7574 21.6873 28.5693 21.7208C28.295 21.8188 28.0055 21.8682 27.714 21.8667C27.3413 21.812 26.9992 21.9762 26.6326 21.9275C26.2536 21.9389 25.8742 21.9288 25.4963 21.8971C24.6227 21.6661 23.7307 21.8242 22.857 21.7086C22.2461 21.6357 21.6657 21.5931 21.0731 21.5201C20.6591 21.4953 20.2492 21.4239 19.8512 21.3073C19.4343 21.2093 19.0086 21.1523 18.5805 21.1371C18.2632 21.1086 17.9511 21.0391 17.6519 20.9303C17.3213 20.8339 16.9813 20.7727 16.6377 20.7479C16.2467 20.6689 15.8618 20.529 15.4708 20.4135H15.4219C15.0187 20.3405 14.6155 20.2797 14.2001 20.1763C13.8946 20.0973 13.5891 19.9574 13.2959 19.8601C13.0026 19.7629 12.6849 19.7081 12.4039 19.6169C12.1229 19.5257 11.9335 19.4528 11.6952 19.3615C11.457 19.2703 11.0843 19.1487 10.8216 19.021C10.5589 18.8933 10.1618 18.6927 9.83185 18.5224C9.53943 18.3977 9.26095 18.2428 9.00098 18.0603C8.53666 17.6651 7.95017 17.3975 7.67524 16.8016C7.59317 16.6819 7.47575 16.5906 7.33923 16.5402C7.15311 16.4639 6.96104 16.4029 6.76494 16.3578C6.42282 16.2726 6.07458 16.2118 5.73246 16.1206C5.29258 15.999 4.86492 15.8531 4.42505 15.7193L4.4556 15.6646ZM10.4978 16.7773V16.7408H8.93988C8.87099 16.7538 8.80486 16.7785 8.74439 16.8138C8.77493 16.8624 8.79326 16.9293 8.83602 16.9597C9.02541 17.1117 9.23924 17.2334 9.41031 17.3975C9.69113 17.6402 10.0141 17.8298 10.3634 17.9569C10.5161 18.0238 10.6688 18.0785 10.8155 18.1515L11.9701 18.6866C12.124 18.7629 12.2833 18.8279 12.4467 18.8812C12.7827 18.9724 13.1309 19.0454 13.4669 19.1366C13.9068 19.2521 14.3406 19.3859 14.7804 19.5075H14.8599C15.2448 19.6169 15.6235 19.7507 16.0145 19.8358C16.4055 19.921 16.8821 19.9878 17.3158 20.0608H17.3708C17.8046 20.1763 18.2323 20.3162 18.6721 20.4013C19.0532 20.4278 19.4314 20.4868 19.8024 20.5777C20.2191 20.6678 20.6417 20.7288 21.067 20.7601C21.6291 20.8817 22.2156 20.8817 22.7898 20.9729C23.639 21.1067 24.5066 21.0276 25.368 21.1492C26.2264 21.2071 27.0878 21.2071 27.9462 21.1492C28.1111 21.1492 28.2455 21.0884 28.2333 20.9303C28.2016 20.8074 28.136 20.6958 28.0439 20.6081C27.9726 20.5538 27.8946 20.5088 27.8118 20.4743C27.584 20.3097 27.3474 20.1574 27.1031 20.0182C26.7854 19.8541 26.4494 19.7325 26.1256 19.5804C25.8018 19.4284 25.3986 19.2035 25.0259 19.0393C24.6532 18.8751 24.3477 18.7778 24.0056 18.6623C23.6635 18.5467 23.2114 18.3947 22.7837 18.2853C22.2644 18.1454 21.739 18.0056 21.2136 17.8961C20.6882 17.7867 20.1689 17.738 19.6435 17.659H19.5335C19.0326 17.5435 18.5316 17.4036 18.0245 17.3185C17.5694 17.3002 17.1161 17.2494 16.6683 17.1665C16.0405 17.0536 15.4056 16.9845 14.7682 16.9597C13.7602 16.8016 12.7155 16.9597 11.7135 16.7591C11.3087 16.7255 10.9015 16.7316 10.4978 16.7773Z" fill="#894E62"/>
<path d="M33.8235 30.112C34.1351 29.814 34.3733 29.5586 34.6421 29.3458C34.9886 29.0733 35.3496 28.8196 35.7235 28.5858C36.1141 28.3297 36.5694 28.1885 37.037 28.1784C37.2081 28.1784 37.3914 28.0264 37.5441 28.0568C37.9656 28.1297 38.375 28.2757 38.766 28.379C39.4333 28.643 40.0117 29.09 40.4338 29.6681C40.1711 29.8809 40.0551 29.583 39.9023 29.51C39.6335 29.3762 39.4197 29.1391 39.1509 29.0053C38.4938 28.6519 37.7367 28.5277 37.0004 28.6526C36.5566 28.7131 36.1302 28.8643 35.7479 29.0965C35.4852 29.2789 35.1859 29.4066 34.911 29.5708C34.7969 29.6367 34.6886 29.7119 34.5872 29.7958C34.4449 29.9237 34.2938 30.0415 34.1351 30.1485C34.0923 30.1849 33.9701 30.1302 33.8235 30.112Z" fill="#C56E8B"/>
<path d="M39.4014 41.5556C39.3291 41.5836 39.2528 41.6 39.1753 41.6042C38.711 41.6042 38.2467 41.6042 37.7885 41.5495C37.3303 41.4948 36.8293 41.4522 36.3528 41.3732C36.2672 41.3732 36.2061 41.2029 36.1328 41.1178L36.1939 41.0023C36.5605 41.0023 36.927 41.0023 37.2936 41.0023C37.5282 40.9994 37.7618 40.9709 37.9901 40.9171C38.1611 40.8685 38.265 40.7773 38.039 40.607C37.7213 40.3638 37.428 40.0415 37.1348 39.8044C36.9201 39.6575 36.6828 39.5466 36.4322 39.476C35.9679 39.3301 35.4975 39.2207 35.0331 39.0869C34.9683 39.0579 34.9051 39.0254 34.8438 38.9896C35.4692 38.7669 36.1452 38.7247 36.7937 38.8678C37.4423 39.0109 38.037 39.3335 38.5094 39.7983C38.9316 40.3126 39.2359 40.9122 39.4014 41.5556Z" fill="#894E62"/>
<path d="M40.6111 50.9319C41.4175 50.9319 42.1201 50.9319 42.8227 50.9319C42.8899 50.9319 42.9999 51.0779 43.006 51.163C43.006 51.4792 43.006 51.771 43.006 52.1055C43.006 52.1906 43.006 52.2757 43.006 52.3791C43.1132 52.3492 43.2058 52.2815 43.2665 52.1886C43.3272 52.0958 43.3519 51.9841 43.3359 51.8744C43.3359 51.6373 43.3359 51.394 43.3359 51.1569C43.3359 50.9198 43.4092 50.9197 43.5925 50.8893C44.0201 50.8285 44.4356 50.713 44.8877 50.6157C44.8996 50.7391 44.8996 50.8633 44.8877 50.9866C44.8877 51.1508 44.7838 51.3089 44.7533 51.4731C44.6616 51.8805 44.6127 52.3 44.4967 52.6892C44.4772 52.7819 44.4311 52.867 44.3638 52.9339C44.2965 53.0009 44.211 53.0469 44.1179 53.0662C43.6325 53.1498 43.1574 53.2843 42.7005 53.4675C42.449 53.5661 42.1825 53.6216 41.9124 53.6317C41.6008 53.6621 41.4847 53.5283 41.4114 53.2304C41.3219 52.9635 41.2179 52.7016 41.0998 52.446C41.0998 52.4156 41.0571 52.3852 41.0449 52.3548C40.9654 52.0629 40.8921 51.7467 40.8005 51.4792C40.776 51.3211 40.6966 51.1508 40.6111 50.9319Z" fill="white"/>
<path d="M10.4978 16.7776C10.9041 16.7376 11.3133 16.7376 11.7196 16.7776C12.7399 16.9843 13.7846 16.8201 14.7743 16.9782C15.4117 17.003 16.0466 17.0721 16.6744 17.185C17.1222 17.2679 17.5755 17.3187 18.0306 17.337C18.5377 17.4221 19.0387 17.5619 19.5397 17.6775H19.6496C20.175 17.7565 20.7004 17.8112 21.2197 17.9146C21.739 18.018 22.2705 18.1639 22.7898 18.3038C23.1992 18.4132 23.5963 18.547 24.0117 18.6808C24.4272 18.8145 24.7021 18.9118 25.032 19.0578C25.3619 19.2037 25.7651 19.4226 26.1317 19.5989C26.4982 19.7753 26.7915 19.8726 27.1092 20.0367C27.3535 20.1759 27.5901 20.3281 27.8179 20.4928C27.9007 20.5273 27.9787 20.5723 28.05 20.6265C28.1421 20.7143 28.2077 20.8259 28.2394 20.9488C28.2394 21.1069 28.1172 21.1677 27.9523 21.1677C27.0939 21.2256 26.2325 21.2256 25.3741 21.1677C24.5127 21.0461 23.6452 21.1251 22.796 20.9914C22.2217 20.9002 21.6352 20.9002 21.0731 20.7786C20.6478 20.7472 20.2252 20.6863 19.8085 20.5961C19.4375 20.5053 19.0594 20.4463 18.6782 20.4198C18.2384 20.3347 17.8107 20.1948 17.3769 20.0793H17.3219C16.8882 20.0063 16.4483 19.9516 16.0206 19.8543C15.593 19.757 15.2509 19.6354 14.866 19.526H14.7866C14.3467 19.4044 13.9129 19.2706 13.473 19.1551C13.137 19.0638 12.7888 18.9909 12.4528 18.8997C12.2894 18.8464 12.1301 18.7813 11.9762 18.7051L10.8216 18.17C10.6749 18.097 10.5222 18.0423 10.3695 17.9754C10.0202 17.8483 9.69723 17.6587 9.41641 17.416C9.24535 17.2518 9.03152 17.1302 8.84213 16.9782C8.79936 16.9478 8.78104 16.8809 8.75049 16.8323C8.81097 16.797 8.8771 16.7723 8.94599 16.7593H10.4978V16.7776Z" fill="white"/>
<path d="M47.6526 41.6924C48.0253 42.6227 48.3735 43.5165 48.7095 44.3131L47.4021 44.9212C47.4815 43.851 47.5671 42.793 47.6526 41.6924Z" fill="#FCD1D1"/>
</svg>
